<svg width="24" height="24" viewBox="0 0 24 24" fill="none" xmlns="http://www.w3.org/2000/svg">
<g id="Iconly/Bold/Chart">
<g id="Chart">
<path id="Chart_2" fill-rule="evenodd" clip-rule="evenodd" d="M7.33049 2H16.6695C20.0705 2 21.9905 3.929 22.0005 7.33V16.67C22.0005 20.07 20.0705 22 16.6695 22H7.33049C3.92949 22 2.00049 20.07 2.00049 16.67V7.33C2.00049 3.929 3.92949 2 7.33049 2ZM12.0495 17.86C12.4805 17.86 12.8395 17.54 12.8795 17.11V6.92C12.9195 6.61 12.7705 6.299 12.5005 6.13C12.2195 5.96 11.8795 5.96 11.6105 6.13C11.3395 6.299 11.1905 6.61 11.2195 6.92V17.11C11.2705 17.54 11.6295 17.86 12.0495 17.86ZM16.6505 17.86C17.0705 17.86 17.4295 17.54 17.4805 17.11V13.83C17.5095 13.509 17.3605 13.21 17.0895 13.04C16.8205 12.87 16.4805 12.87 16.2005 13.04C15.9295 13.21 15.7805 13.509 15.8205 13.83V17.11C15.8605 17.54 16.2195 17.86 16.6505 17.86ZM8.21949 17.11C8.17949 17.54 7.82049 17.86 7.38949 17.86C6.95949 17.86 6.59949 17.54 6.56049 17.11V10.2C6.53049 9.889 6.67949 9.58 6.95049 9.41C7.21949 9.24 7.56049 9.24 7.83049 9.41C8.09949 9.58 8.25049 9.889 8.21949 10.2V17.11Z" fill="#3A36DB"/>
</g>
</g>
</svg>
