<svg width="10" height="10" viewBox="0 0 10 10" fill="none" xmlns="http://www.w3.org/2000/svg">
<g id="Plus">
<path id="Vector" d="M9.49994 4.49999H5.50001V0.499968C5.50001 0.224029 5.27599 0 4.99995 0C4.72402 0 4.49999 0.224029 4.49999 0.499968V4.49999H0.499968C0.224029 4.49999 0 4.72402 0 4.99995C0 5.27599 0.224029 5.50001 0.499968 5.50001H4.49999V9.49994C4.49999 9.77597 4.72402 10 4.99995 10C5.27599 10 5.50001 9.77597 5.50001 9.49994V5.50001H9.49994C9.77597 5.50001 10 5.27599 10 4.99995C10 4.72402 9.77597 4.49999 9.49994 4.49999Z" fill="white"/>
</g>
</svg>
